IKResults
version=1
nRows=25
nColumns=24
inDegrees=yes

Units are S.I. units (second, meters, Newtons, ...)
If the header above contains a line with 'inDegrees', this indicates whether rotational values are in degrees (yes) or radians (no).

endheader
time	pelvis_tilt	pelvis_list	pelvis_rotation	pelvis_tx	pelvis_ty	pelvis_tz	hip_flexion_r	hip_adduction_r	hip_rotation_r	knee_angle_r	ankle_angle_r	subtalar_angle_r	mtp_angle_r	hip_flexion_l	hip_adduction_l	hip_rotation_l	knee_angle_l	ankle_angle_l	subtalar_angle_l	mtp_angle_l	lumbar_extension	lumbar_bending	lumbar_rotation
1.540000	11.095555	2.521381	-179.436637	0.300024	0.573225	-1.198476	70.159040	-31.901354	-14.110326	-99.944186	34.342422	6.312318	0.000000	73.970309	-33.529925	-7.432022	-101.003375	36.886329	16.147592	0.000000	-14.537461	2.706889	3.670787
1.545000	11.074978	2.513631	-179.475611	0.299459	0.579303	-1.198674	69.273188	-31.681282	-14.595601	-98.805929	33.947265	6.309117	0.000000	73.038589	-33.407060	-7.902197	-99.872078	36.442964	15.989392	0.000000	-14.378446	2.697741	3.644345
1.550000	11.096533	2.497974	-179.493885	0.298952	0.585369	-1.198918	68.426007	-31.459161	-15.066922	-97.635218	33.544602	6.279412	0.000000	72.147338	-33.242431	-8.370338	-98.697947	36.001682	15.857652	0.000000	-14.169153	2.663127	3.633280
1.555000	11.085672	2.463691	-179.499578	0.298356	0.591437	-1.199119	67.556413	-31.255670	-15.501438	-96.467317	33.159883	6.243445	0.000000	71.211332	-33.062537	-8.860924	-97.518537	35.550890	15.723576	0.000000	-13.998307	2.622564	3.549826
1.560000	11.042020	2.460216	-179.536929	0.297693	0.597535	-1.199284	66.644354	-31.022817	-15.967659	-95.294532	32.779474	6.256032	0.000000	70.244478	-32.909467	-9.338124	-96.316471	35.098882	15.511621	0.000000	-13.840507	2.592267	3.622525
1.565000	11.043546	2.476032	-179.574207	0.297058	0.603583	-1.199461	65.761752	-30.761979	-16.459931	-94.102792	32.348134	6.209302	0.000000	69.358593	-32.772770	-9.770480	-95.164504	34.625497	15.378647	0.000000	-13.649433	2.604923	3.589903
1.570000	11.025487	2.474135	-179.618241	0.296383	0.609623	-1.199626	64.907086	-30.508437	-16.887110	-92.926428	31.936004	6.169594	0.000000	68.437808	-32.614916	-10.209975	-94.000882	34.129342	15.189584	0.000000	-13.468475	2.593170	3.598549
1.575000	11.005084	2.459950	-179.669252	0.295702	0.615610	-1.199778	64.029570	-30.246964	-17.304326	-91.721287	31.521918	6.089966	0.000000	67.503720	-32.471807	-10.682917	-92.820758	33.645267	15.065526	0.000000	-13.288365	2.575953	3.595104
1.580000	10.975079	2.460404	-179.690816	0.295027	0.621628	-1.200000	63.163948	-30.003328	-17.781612	-90.566913	30.834590	5.810317	0.000000	66.564791	-32.304378	-11.137418	-91.541848	33.245863	14.939417	0.000000	-13.122380	2.580664	3.542040
1.585000	10.974128	2.444734	-179.728970	0.294337	0.627547	-1.200217	62.336950	-29.725487	-18.171587	-89.373141	30.328510	5.713769	0.000000	65.660033	-32.142415	-11.599202	-90.337404	32.770750	14.825564	0.000000	-12.916245	2.545588	3.550361
1.590000	10.961380	2.447752	-179.768347	0.293608	0.633480	-1.200398	61.475147	-29.439855	-18.584302	-88.156366	29.894703	5.690976	0.000000	64.758424	-31.995319	-12.048776	-89.164190	32.311853	14.707853	0.000000	-12.737239	2.548858	3.513202
1.595000	10.935427	2.451831	-179.831629	0.292825	0.639393	-1.200578	60.594038	-29.123163	-18.945104	-86.893134	29.559658	5.826083	0.000000	63.830466	-31.858436	-12.495296	-87.957184	31.849114	14.603698	0.000000	-12.558899	2.541276	3.545594
1.600000	10.905398	2.442065	-179.838194	0.292005	0.645283	-1.200672	59.711183	-28.875241	-19.348826	-85.657502	29.097513	5.857189	0.000000	62.901731	-31.660564	-12.936690	-86.731000	31.357411	14.537223	0.000000	-12.391373	2.544605	3.469069
1.605000	10.907110	2.419704	-179.864201	0.291270	0.651140	-1.200872	58.880314	-28.602025	-19.731984	-84.404589	28.583761	5.860957	0.000000	61.991378	-31.460578	-13.389256	-85.467381	30.861555	14.451301	0.000000	-12.184379	2.516656	3.443628
1.610000	10.869015	2.390656	-179.889135	0.290461	0.657007	-1.201057	58.010298	-28.334460	-20.103400	-83.147194	28.075127	5.881310	0.000000	61.033874	-31.268414	-13.863390	-84.205676	30.354361	14.381561	0.000000	-12.026114	2.485142	3.410013
1.615000	10.854612	2.368759	-179.915200	0.289665	0.662763	-1.201200	57.179786	-28.060255	-20.461634	-81.896400	27.562876	5.897593	0.000000	60.134188	-31.066760	-14.286255	-82.979451	29.843494	14.323636	0.000000	-11.839473	2.446277	3.410392
1.620000	10.792663	2.350609	-179.957828	0.288794	0.668547	-1.201345	56.303669	-27.778802	-20.829828	-80.646344	27.072918	5.860594	0.000000	59.158297	-30.893359	-14.755343	-81.735489	29.332619	14.236900	0.000000	-11.694634	2.415417	3.405359
1.625000	10.833985	2.269471	-179.970134	0.288083	0.674149	-1.201335	55.567486	-27.562605	-21.144262	-79.375627	26.563005	5.837194	0.000000	58.409547	-30.570140	-14.865636	-80.244400	28.336031	14.331434	0.000000	-11.457875	2.345211	3.363188
1.630000	10.773930	2.222616	-179.992813	0.287198	0.679804	-1.201468	54.708097	-27.315270	-21.467822	-78.113901	26.057859	5.857603	0.000000	57.442041	-30.343210	-15.332733	-78.985105	27.800429	14.248317	0.000000	-11.316244	2.289952	3.336043
1.635000	10.739734	2.173824	-180.010099	0.286322	0.685348	-1.201573	53.880132	-27.066705	-21.782639	-76.847910	25.530939	5.866074	0.000000	56.507217	-30.101595	-15.791693	-77.710140	27.271456	14.188991	0.000000	-11.158244	2.245292	3.286054
1.640000	10.705974	2.144066	-180.035649	0.285454	0.690839	-1.201781	53.043757	-26.780211	-22.107169	-75.573567	25.040301	5.887239	0.000000	55.594194	-29.883235	-16.221789	-76.443615	26.720086	14.119454	0.000000	-10.989197	2.202579	3.278582
1.645000	10.661779	2.122432	-180.064974	0.284556	0.696270	-1.201898	52.210470	-26.492598	-22.440222	-74.304489	24.515521	5.875738	0.000000	54.673465	-29.667886	-16.661529	-75.186000	26.185919	14.018014	0.000000	-10.818655	2.161129	3.324081
1.650000	10.624807	2.088502	-180.098839	0.283682	0.701667	-1.202026	51.389882	-26.205150	-22.748385	-73.028322	23.995468	5.891995	0.000000	53.759536	-29.432645	-17.090696	-73.909980	25.625897	13.912599	0.000000	-10.652112	2.115842	3.328712
1.655000	10.594213	2.053975	-180.108442	0.282775	0.706958	-1.202093	50.565327	-25.947781	-23.078263	-71.749926	23.453710	5.942861	0.000000	52.865442	-29.170401	-17.498767	-72.639210	25.077007	13.823180	0.000000	-10.467279	2.085655	3.300865
1.660000	10.565899	2.019790	-180.129445	0.281937	0.712165	-1.202246	49.758623	-25.662262	-23.380773	-70.462526	22.925123	5.957697	0.000000	51.981752	-28.936421	-17.930199	-71.363741	24.517143	13.807234	0.000000	-10.291996	2.044888	3.294058
